<?xml version="1.0" encoding="utf-8"?><svg viewBox="0 0 32 32" xmlns="http://www.w3.org/2000/svg" xmlns:xlink="http://www.w3.org/1999/xlink"><style>:root>svg{display:none}:root>svg:target{display:block}</style><svg fill="none" viewBox="0 0 28 28" id="invalid_field" xmlns="http://www.w3.org/2000/svg"><path d="M14 .667C6.667.667.667 6.667.667 14s6 13.333 13.333 13.333 13.333-6 13.333-13.333S21.333.667 14 .667z" fill="#9A2323"/><path d="M14 16.666c-.8 0-1.333-.533-1.333-1.333V6.4c0-.8.533-1.334 1.333-1.334.8 0 1.333.534 1.333 1.334v8.933c0 .667-.533 1.333-1.333 1.333zM14 22.933c-.8 0-1.333-.533-1.333-1.333v-1.334c0-.8.533-1.333 1.333-1.333.8 0 1.333.534 1.333 1.334V21.6c0 .8-.533 1.333-1.333 1.333z" fill="#fff"/></svg><svg fill="none" viewBox="0 0 32 32" id="play" xmlns="http://www.w3.org/2000/svg"><path d="M26.667 16l-16 9.238V6.762l16 9.238z" fill="currentColor"/></svg><svg fill="none" viewBox="0 0 27 27" id="plus" xmlns="http://www.w3.org/2000/svg"><path d="M13.5 0v27M0 13.5h27" stroke="currentColor"/></svg><svg fill="none" viewBox="0 0 30 21" id="quotes" xmlns="http://www.w3.org/2000/svg"><path d="M.941 14.5C.941 6.688 4.785.86 12.473.86v1.984c-3.348 0-5.332 1.488-5.704 5.828 3.224 0 5.828 2.604 5.704 5.828a5.821 5.821 0 01-5.828 5.828c-3.224 0-5.828-2.604-5.704-5.828zM29.957 2.844c-3.348 0-5.332 1.488-5.704 5.828 3.224 0 5.704 2.604 5.704 5.828a5.821 5.821 0 01-5.828 5.828 5.821 5.821 0 01-5.828-5.828c0-7.812 3.844-13.64 11.656-13.64v1.984z" fill="currentColor"/></svg><svg fill="none" viewBox="0 0 16 16" id="scroll" xmlns="http://www.w3.org/2000/svg"><path d="M8 3.2v4.266" stroke="#fff"/><rect x="3.166" y=".5" width="9.667" height="15" rx="4.5" stroke="currentColor"/></svg><svg fill="none" viewBox="0 0 31 13" id="slider_arrow" xmlns="http://www.w3.org/2000/svg"><path d="M24.373 1L30 6.5m0 0L24.373 12M30 6.5H0" stroke="currentColor"/></svg></svg>